<svg width="107" height="24" viewBox="0 0 107 24" fill="none" xmlns="http://www.w3.org/2000/svg">
<rect width="107" height="24" fill="#3D3D3D"/>
<path d="M72.88 19.14C71.56 19.14 70.3467 18.8333 69.24 18.22C68.1333 17.5933 67.2533 16.7333 66.6 15.64C65.96 14.5333 65.64 13.2867 65.64 11.9C65.64 10.5133 65.96 9.27333 66.6 8.18C67.2533 7.07333 68.1333 6.21333 69.24 5.6C70.3467 4.98667 71.56 4.68 72.88 4.68C74.2133 4.68 75.4267 4.98667 76.52 5.6C77.6267 6.21333 78.5 7.07333 79.14 8.18C79.78 9.27333 80.1 10.5133 80.1 11.9C80.1 13.2867 79.78 14.5333 79.14 15.64C78.5 16.7333 77.6267 17.5933 76.52 18.22C75.4133 18.8333 74.2 19.14 72.88 19.14ZM72.88 15.5C73.88 15.5 74.6667 15.1733 75.24 14.52C75.8267 13.8667 76.12 12.9933 76.12 11.9C76.12 10.78 75.8267 9.9 75.24 9.26C74.6667 8.60667 73.88 8.28 72.88 8.28C71.8667 8.28 71.0733 8.60667 70.5 9.26C69.9267 9.9 69.64 10.78 69.64 11.9C69.64 13.0067 69.9267 13.8867 70.5 14.54C71.0733 15.18 71.8667 15.5 72.88 15.5ZM85.7022 4.9V13.08C85.7022 13.84 85.8755 14.4267 86.2222 14.84C86.5822 15.2533 87.1222 15.46 87.8422 15.46C88.5622 15.46 89.1022 15.2533 89.4622 14.84C89.8355 14.4133 90.0222 13.8267 90.0222 13.08V4.9H93.9422V13.08C93.9422 14.3733 93.6689 15.48 93.1222 16.4C92.5755 17.3067 91.8289 17.9933 90.8822 18.46C89.9489 18.9133 88.9089 19.14 87.7622 19.14C86.6155 19.14 85.5889 18.9133 84.6822 18.46C83.7889 17.9933 83.0822 17.3067 82.5622 16.4C82.0555 15.4933 81.8022 14.3867 81.8022 13.08V4.9H85.7022ZM106.72 4.9V8.02H102.96V19H99.0405V8.02H95.3205V4.9H106.72Z" fill="white"/>
<path d="M0.7 12C0.7 10.6267 1.00667 9.4 1.62 8.32C2.24667 7.22667 3.09333 6.38 4.16 5.78C5.24 5.16667 6.44667 4.86 7.78 4.86C9.34 4.86 10.7067 5.26 11.88 6.06C13.0533 6.86 13.8733 7.96667 14.34 9.38H11.12C10.8 8.71333 10.3467 8.21333 9.76 7.88C9.18667 7.54667 8.52 7.38 7.76 7.38C6.94667 7.38 6.22 7.57333 5.58 7.96C4.95333 8.33333 4.46 8.86667 4.1 9.56C3.75333 10.2533 3.58 11.0667 3.58 12C3.58 12.92 3.75333 13.7333 4.1 14.44C4.46 15.1333 4.95333 15.6733 5.58 16.06C6.22 16.4333 6.94667 16.62 7.76 16.62C8.52 16.62 9.18667 16.4533 9.76 16.12C10.3467 15.7733 10.8 15.2667 11.12 14.6H14.34C13.8733 16.0267 13.0533 17.14 11.88 17.94C10.72 18.7267 9.35333 19.12 7.78 19.12C6.44667 19.12 5.24 18.82 4.16 18.22C3.09333 17.6067 2.24667 16.76 1.62 15.68C1.00667 14.6 0.7 13.3733 0.7 12ZM23.2116 19.14C21.9049 19.14 20.7049 18.8333 19.6116 18.22C18.5182 17.6067 17.6516 16.76 17.0116 15.68C16.3716 14.5867 16.0516 13.3533 16.0516 11.98C16.0516 10.62 16.3716 9.4 17.0116 8.32C17.6516 7.22667 18.5182 6.37333 19.6116 5.76C20.7049 5.14667 21.9049 4.84 23.2116 4.84C24.5316 4.84 25.7316 5.14667 26.8116 5.76C27.9049 6.37333 28.7649 7.22667 29.3916 8.32C30.0316 9.4 30.3516 10.62 30.3516 11.98C30.3516 13.3533 30.0316 14.5867 29.3916 15.68C28.7649 16.76 27.9049 17.6067 26.8116 18.22C25.7182 18.8333 24.5182 19.14 23.2116 19.14ZM23.2116 16.64C24.0516 16.64 24.7916 16.4533 25.4316 16.08C26.0716 15.6933 26.5716 15.1467 26.9316 14.44C27.2916 13.7333 27.4716 12.9133 27.4716 11.98C27.4716 11.0467 27.2916 10.2333 26.9316 9.54C26.5716 8.83333 26.0716 8.29333 25.4316 7.92C24.7916 7.54667 24.0516 7.36 23.2116 7.36C22.3716 7.36 21.6249 7.54667 20.9716 7.92C20.3316 8.29333 19.8316 8.83333 19.4716 9.54C19.1116 10.2333 18.9316 11.0467 18.9316 11.98C18.9316 12.9133 19.1116 13.7333 19.4716 14.44C19.8316 15.1467 20.3316 15.6933 20.9716 16.08C21.6249 16.4533 22.3716 16.64 23.2116 16.64ZM44.9747 5.04L39.8547 19H36.4547L31.3347 5.04H34.3347L38.1747 16.14L41.9947 5.04H44.9747ZM49.4534 5.04V19H46.6534V5.04H49.4534ZM57.0998 5.04C58.5665 5.04 59.8532 5.32667 60.9598 5.9C62.0798 6.47333 62.9398 7.29333 63.5398 8.36C64.1532 9.41333 64.4598 10.64 64.4598 12.04C64.4598 13.44 64.1532 14.6667 63.5398 15.72C62.9398 16.76 62.0798 17.5667 60.9598 18.14C59.8532 18.7133 58.5665 19 57.0998 19H52.2198V5.04H57.0998ZM56.9998 16.62C58.4665 16.62 59.5998 16.22 60.3998 15.42C61.1998 14.62 61.5998 13.4933 61.5998 12.04C61.5998 10.5867 61.1998 9.45333 60.3998 8.64C59.5998 7.81333 58.4665 7.4 56.9998 7.4H55.0198V16.62H56.9998Z" fill="#F8941D"/>
</svg>
